<?xml version="1.0" encoding="UTF-8" standalone="no"?>
<!DOCTYPE svg PUBLIC "-//W3C//DTD SVG 1.1//EN" "http://www.w3.org/Graphics/SVG/1.1/DTD/svg11.dtd">
<svg version="1.1" xmlns="http://www.w3.org/2000/svg" xmlns:xlink="http://www.w3.org/1999/xlink" preserveAspectRatio="xMidYMid meet" viewBox="0 0 46 48" width="46" height="48"><defs><path d="M30.34 6.59L30.34 6.54L30.34 6.48L30.35 6.43L30.35 6.38L30.36 6.34L30.37 6.29L30.39 6.24L30.4 6.19L30.42 6.15L30.44 6.1L30.46 6.06L30.48 6.01L30.5 5.97L30.52 5.93L30.55 5.89L30.58 5.85L30.61 5.81L30.64 5.77L30.67 5.74L30.7 5.7L30.74 5.67L30.77 5.64L30.81 5.61L30.85 5.58L30.89 5.55L30.93 5.52L30.97 5.5L31.01 5.48L31.06 5.46L31.1 5.44L31.15 5.42L31.19 5.4L31.24 5.39L31.29 5.37L31.34 5.36L31.38 5.35L31.43 5.35L31.48 5.34L31.54 5.34L31.59 5.34L36.59 5.34L36.64 5.34L36.69 5.34L36.74 5.35L36.79 5.35L36.84 5.36L36.89 5.37L36.93 5.39L36.98 5.4L37.03 5.42L37.07 5.44L37.12 5.46L37.16 5.48L37.2 5.5L37.25 5.52L37.29 5.55L37.32 5.58L37.36 5.61L37.4 5.64L37.44 5.67L37.47 5.7L37.5 5.74L37.54 5.77L37.57 5.81L37.6 5.85L37.62 5.89L37.65 5.93L37.67 5.97L37.7 6.01L37.72 6.06L37.74 6.1L37.76 6.15L37.77 6.19L37.79 6.24L37.8 6.29L37.81 6.34L37.82 6.38L37.83 6.43L37.83 6.48L37.84 6.54L37.84 6.59L37.84 19.71L42.84 25.34L37.84 25.34L37.84 42.84L26.71 42.84L26.71 42.83L26.71 42.78L26.71 30.64L26.71 30.58L26.7 30.53L26.7 30.47L26.69 30.42L26.68 30.37L26.67 30.31L26.66 30.26L26.64 30.21L26.63 30.16L26.61 30.11L26.59 30.06L26.56 30.02L26.54 29.97L26.51 29.93L26.49 29.88L26.46 29.84L26.43 29.8L26.4 29.76L26.36 29.72L26.33 29.68L26.29 29.65L26.26 29.61L26.22 29.58L26.18 29.55L26.14 29.52L26.1 29.49L26.05 29.46L26.01 29.44L25.97 29.42L25.92 29.39L25.87 29.38L25.83 29.36L25.78 29.34L25.73 29.33L25.68 29.32L25.63 29.31L25.58 29.3L25.52 29.29L25.47 29.29L25.42 29.29L20.26 29.29L20.2 29.29L20.15 29.29L20.1 29.3L20.05 29.31L20 29.32L19.95 29.33L19.9 29.34L19.85 29.36L19.8 29.38L19.75 29.39L19.71 29.42L19.66 29.44L19.62 29.46L19.58 29.49L19.54 29.52L19.49 29.55L19.45 29.58L19.42 29.61L19.38 29.65L19.34 29.68L19.31 29.72L19.28 29.76L19.25 29.8L19.22 29.84L19.19 29.88L19.16 29.93L19.13 29.97L19.11 30.02L19.09 30.06L19.07 30.11L19.05 30.16L19.03 30.21L19.02 30.26L19 30.31L18.99 30.37L18.98 30.42L18.98 30.47L18.97 30.53L18.97 30.58L18.97 30.64L18.97 42.78L18.97 42.83L18.97 42.84L7.84 42.84L7.84 25.34L2.84 25.34L22.84 2.84L30.34 11.27L30.34 6.59Z" id="e1KkeDkAPV"></path></defs><g><g><g><use xlink:href="#e1KkeDkAPV" opacity="1" fill="#1e92ff" fill-opacity="1"></use></g></g></g></svg>